<svg width="150" height="150" viewBox="0 0 150 150" fill="none" xmlns="http://www.w3.org/2000/svg">
<path d="M105.534 149.254L150 99.2292L149.369 8.23572C149.338 3.66743 145.914 -0.0306219 141.903 0.000191167L7.35196 1.03395C5.38639 1.05124 3.50798 1.93251 2.12947 3.48412C0.750965 5.03572 -0.0148756 7.13073 0.000218973 9.30883L0.91861 141.839C0.932983 142.926 1.14039 143.999 1.52898 144.997C1.91758 145.995 2.47976 146.899 3.18342 147.657C3.88707 148.415 4.71842 149.012 5.63 149.413C6.54159 149.815 7.51555 150.014 8.49627 149.999L105.534 149.254ZM138.74 91.0642L97.9792 136.897L97.6638 91.3798L138.74 91.0642Z" fill="#B1E9FA" fill-opacity="0.2"/>
</svg>
